<svg xmlns="http://www.w3.org/2000/svg" xmlns:xlink="http://www.w3.org/1999/xlink" width="348" height="454" viewBox="0 0 348 454"><defs><style>.a,.c,.d{fill:none;}.b{fill:#f6f6f6;}.c,.d{stroke:#b2afaf;}.c,.d,.f{stroke-width:8px;}.d{stroke-linecap:round;}.e{clip-path:url(#a);}.f{fill:#fff;stroke:#848383;}.g,.h{fill:#848383;}.g{font-size:42px;font-family:SegoeUI-Bold, Segoe UI;font-weight:700;}.h{font-size:37px;font-family:SegoeUI, Segoe UI;}.i{stroke:none;}</style><clipPath id="a"><rect class="a" width="99.92" height="21.92"/></clipPath></defs><g transform="translate(-325 -294)"><rect class="b" width="256" height="256" rx="40" transform="translate(349 350.5)"/><g class="c" transform="translate(369 330.5)"><rect class="i" width="256" height="256" rx="40"/><rect class="a" x="4" y="4" width="248" height="248" rx="36"/></g><g transform="translate(-277 108.5)"><line class="d" x2="33" transform="translate(700.333 306.833) rotate(45)"/><line class="d" x2="33" transform="translate(723.667 306.833) rotate(135)"/></g><g transform="translate(-153 108.5)"><line class="d" x2="33" transform="translate(700.333 306.833) rotate(45)"/><line class="d" x2="33" transform="translate(723.667 306.833) rotate(135)"/></g><g class="e" transform="translate(447.04 499.04)"><g transform="translate(-377.04 -651.54)"><line class="c" x2="23" transform="translate(379.868 654.368) rotate(45)"/><line class="c" x2="23" transform="translate(407.132 654.368) rotate(135)"/></g><g transform="translate(-355.04 -651.54)"><line class="c" x2="23" transform="translate(379.868 654.368) rotate(45)"/><line class="c" x2="23" transform="translate(407.132 654.368) rotate(135)"/></g><g transform="translate(-333.04 -651.54)"><line class="c" x2="23" transform="translate(379.868 654.368) rotate(45)"/><line class="c" x2="23" transform="translate(407.132 654.368) rotate(135)"/></g><g transform="translate(-311.04 -651.54)"><line class="c" x2="23" transform="translate(379.868 654.368) rotate(45)"/><line class="c" x2="23" transform="translate(407.132 654.368) rotate(135)"/></g></g><line class="d" y2="31" transform="translate(546.5 323)"/><line class="d" y2="48" transform="translate(559.5 298)"/><line class="d" y2="48" transform="translate(572.5 306)"/><g class="f" transform="translate(651 393.5)"><circle class="i" cx="11" cy="11" r="11"/><circle class="a" cx="11" cy="11" r="7"/></g><g class="f" transform="translate(325 478.5)"><circle class="i" cx="11" cy="11" r="11"/><circle class="a" cx="11" cy="11" r="7"/></g><g class="f" transform="translate(447 295.5)"><circle class="i" cx="11" cy="11" r="11"/><circle class="a" cx="11" cy="11" r="7"/></g><g transform="translate(0 -43)"><text class="g" transform="translate(437 730.5)"><tspan x="0" y="0">OOPS!</tspan></text><text class="h" transform="translate(349 782)"><tspan x="0" y="0">Data not available.</tspan></text></g></g></svg>